# xmcd CD Database Entry
#
# Track frame offsets:
# 150
# 10982
# 26245
# 37841
# 57060
# 81941
# 101211
# 124928
# 137360
# 151799
# 175043
# 192446
#
# Disc length: 2740 seconds
#
# Revision: 1
# Processed by: cddbd v1.4b42PL0 Copyright (c) Steve Scherf et al.
# Submitted via: tcd 2.0b
#
DISCID=930ab20c
DTITLE=David Jacobs-Strain/Skin and Bones
DYEAR=1900
DGENRE=
TTITLE0=Cottenwood Grove
TTITLE1=Poor Boy
TTITLE2=Stagolee
TTITLE3=Big Hands
TTITLE4=Mama, Don't You Know?
TTITLE5=Skin and Bones
TTITLE6=Rain So Hard
TTITLE7=Way Down
TTITLE8=Swing Low
TTITLE9=Back Water Blues
TTITLE10=Brownsville
TTITLE11=Nobody's Fault
EXTD=
EXTT0=
EXTT1=
EXTT2=
EXTT3=
EXTT4=
EXTT5=
EXTT6=
EXTT7=
EXTT8=
EXTT9=
EXTT10=
EXTT11=
PLAYORDER=
